<svg class="icon" style="width: 1em;height: 1em;vertical-align: middle;fill: currentColor;overflow: hidden;" viewBox="0 0 1024 1024" version="1.1" xmlns="http://www.w3.org/2000/svg" p-id="903"><path d="M982.9376 260.864c-27.1872-27.1872-59.2384-39.4752-96.2048-39.4752h-118.528l-27.1872-71.5776a105.472 105.472 0 0 0-36.9664-44.3904c-17.3056-12.3392-37.0176-19.7632-54.272-19.7632H378.2144c-19.7632 0-36.9664 7.424-54.272 19.7632-17.3056 12.3392-29.696 27.136-37.0176 44.3904l-29.6448 71.5776H136.3968c-36.9664 0-69.12 12.3392-96.1536 39.424-27.1872 27.2384-39.4752 59.2384-39.4752 96.3072v476.3648c0 36.9664 12.3392 69.12 39.424 96.256 27.2384 27.2384 59.2384 39.4752 96.256 39.4752h750.1824c36.9664 0 69.12-12.3392 96.256-39.424 27.136-27.1872 39.424-59.2384 39.424-96.3072V357.12c0.1024-37.0688-12.1856-69.12-39.3728-96.256z m-471.3984 550.4a225.4336 225.4336 0 0 1-224.6144-224.6656A225.4336 225.4336 0 0 1 511.488 361.984a225.3824 225.3824 0 0 1 224.6144 224.6144 225.4336 225.4336 0 0 1-224.6144 224.6656z" p-id="904"></path><path d="M511.488 438.5792a149.6064 149.6064 0 0 0-150.528 150.5792c0 83.968 66.6112 150.5792 150.528 150.5792 83.968 0 150.6304-66.6112 150.6304-150.528A149.6064 149.6064 0 0 0 511.488 438.528z" p-id="905"></path></svg>