<svg class="icon" style="width: 1em;height: 1em;vertical-align: middle;fill: currentColor;overflow: hidden;" viewBox="0 0 1024 1024" version="1.1" xmlns="http://www.w3.org/2000/svg" p-id="857"><path d="M745.57696 431.872v478.3616H1024.10496V434.8416l-118.9376-150.3744-159.6416 147.4048z m-344.32 478.3616h278.528V482.5088l-134.5536 108.8-143.9744-75.264v394.1888z m-344.2688 0h278.528V480l-76.1856-51.1488-202.3424 165.4784v315.904z" p-id="858"></path><path d="M987.24096 943.4624H91.90656a35.4304 35.4304 0 0 0-34.9184 35.84c0 19.8144 15.6672 35.84 34.9184 35.84H987.29216a35.4304 35.4304 0 0 0 34.9184-35.84c0-19.7632-15.616-35.84-34.9184-35.84M136.19456 461.6704l140.9024-120.9344L546.35776 508.928l319.2832-308.4288c1.1264-1.1264 2.048-2.4064 3.072-3.6864l53.76 55.808L1009.05216 2.56l-248.4224 82.0736 59.4432 61.696c-0.768 0.6656-1.5872 1.1776-2.3552 1.8944L537.19296 419.2768 270.69696 252.8256 91.34336 406.6816a36.4544 36.4544 0 0 0-4.352 50.5344 34.304 34.304 0 0 0 49.2032 4.4544" p-id="859"></path></svg>