<svg class="icon" style="width: 1em;height: 1em;vertical-align: middle;fill: currentColor;overflow: hidden;" viewBox="0 0 1024 1024" version="1.1" xmlns="http://www.w3.org/2000/svg" p-id="948"><path d="M798.6176 710.7072c97.1264 0 225.3824 121.9072 225.3824 218.0096 0 30.208-59.6992 19.2512-164.096 9.216l0.256-2.9184c0-63.1808-49.664-136.448-112.7424-186.0096 20.8384-21.248 40.8064-38.2976 51.2-38.2976z m-80.0768-237.7728c68.7104 1.4336 134.4 6.0416 182.6816 10.5984-7.3216 114.4832-104.448 206.9504-225.3824 206.9504a228.864 228.864 0 0 1-102.4-23.9616v-9.7792l3.584-2.2528a351.744 351.744 0 0 0 139.6736-176.384l1.8432-5.1712z m-33.8944-299.7248c119.04 1.5872 186.5216 35.328 195.3792 40.0384l1.024 0.512 40.2944 238.3872s-95.1808-15.104-191.7952-19.2512c5.12-24.2688 7.7312-49.0496 7.7312-73.9328a351.5392 351.5392 0 0 0-47.5136-177.152l-5.12-8.6016zM137.216 437.4016c8.192 128.0512 116.736 231.2704 251.904 231.2704s243.712-103.2192 251.904-231.2192a2823.0144 2823.0144 0 0 0-253.952-12.3904c-92.16 0-184.32 6.144-249.856 12.3904z m389.12 253.952c-30.72 0-137.216 134.2464-137.216 134.2464s-100.352-134.1952-137.216-134.1952c-129.024 0-251.904 132.096-251.904 243.6096 0 49.5616 165.888 0 401.408 0 233.472 0 376.832 49.5616 376.832 0 0-107.3664-143.36-243.6096-251.904-243.6096z m137.216-289.024l-45.056-266.3424S538.624 90.624 389.12 90.624c-149.504 0-229.376 45.4144-229.376 45.4144l-45.056 266.3424s153.6-22.6816 282.624-22.6816c122.88 0 266.24 22.6816 266.24 22.6816zM368.64 321.8432v-61.952H305.152c-12.288 0-20.48-8.2432-20.48-20.6336 0-12.3904 10.24-20.6848 20.48-20.6848H368.64V156.672c0-11.3664 9.216-20.6336 20.48-20.6336 11.264 0 20.48 9.216 20.48 20.6848v61.952h63.488c12.288 0 20.48 8.192 20.48 20.6336 0 11.3664-9.216 20.6336-20.48 20.6336H409.6v61.952c0 11.3664-9.216 20.6336-20.48 20.6336-11.264 0-20.48-9.216-20.48-20.6336z" p-id="949"></path></svg>