<svg class="icon" style="width: 1em;height: 1em;vertical-align: middle;fill: currentColor;overflow: hidden;" viewBox="0 0 1024 1024" version="1.1" xmlns="http://www.w3.org/2000/svg" p-id="1026"><path d="M208.0256 161.28c-114.688 82.688-96.7168 274.3808-9.984 359.3216-119.3984 165.5808-171.008 302.592-151.2448 413.44a42.6496 42.6496 0 0 0 83.968-15.0016c-15.7696-88.4736 35.4816-215.3472 157.9008-377.6a42.6496 42.6496 0 0 0-13.4144-63.0784 41.6768 41.6768 0 0 0-10.8544-12.9024c-57.7536-45.568-75.1616-185.3952-6.4512-234.9568a42.6496 42.6496 0 1 0-49.92-69.2224zM827.392 161.1776c98.1504 87.8592 83.968 270.4384 22.016 357.4784l2.6624 3.584c118.528 164.9152 169.6768 301.312 150.016 411.8016a42.6496 42.6496 0 0 1-84.0192-15.0016c15.7696-88.4736-35.4816-215.3472-157.9008-377.6a42.6496 42.6496 0 0 1 13.4656-63.0784l1.6896-2.9184 2.048-2.816c39.936-50.8416 53.4016-183.4496-0.8704-241.92l-6.0416-5.9392a42.6496 42.6496 0 1 1 56.8832-63.5904z" p-id="1027"></path><path d="M522.1376 85.3504a236.288 236.288 0 0 1 92.8768 453.632c169.1136 101.12 314.7264 439.6544 192.7168 439.6544H230.1952c-100.864-0.1024 37.0688-335.1552 202.9056-438.1696a236.288 236.288 0 0 1 89.0368-455.168z m0 567.0912a47.2576 47.2576 0 0 0-47.2576 47.2576v94.5152a47.2576 47.2576 0 1 0 94.5152 0v-94.5152a47.2576 47.2576 0 0 0-47.2576-47.2576z" p-id="1028"></path></svg>