<svg class="icon" style="width: 1em;height: 1em;vertical-align: middle;fill: currentColor;overflow: hidden;" viewBox="0 0 1024 1024" version="1.1" xmlns="http://www.w3.org/2000/svg" p-id="926"><path d="M537.1904 256C369.3568 256 207.9744 351.744 153.6 486.4c54.3232 134.656 215.7568 230.4 383.5904 230.4 167.0144 0 330.0864-95.744 384.4096-230.4C866.4576 351.744 704.2048 256 537.1904 256z m0 374.4256c-87.9104 0-159.8464-64.8192-159.8464-144.0256 0-79.2064 71.936-144.0256 159.8464-144.0256 87.9104 0 159.8464 64.8192 159.8464 144.0256 0 79.2064-71.936 144.0256-159.8464 144.0256zM633.088 486.4c0 47.5136-43.1616 86.4256-95.8976 86.4256S441.344 533.9136 441.344 486.4c0-47.5136 43.1616-86.4256 95.8976-86.4256s95.8976 38.912 95.8976 86.4256z" p-id="927"></path></svg>