<svg class="icon" style="width: 1em;height: 1em;vertical-align: middle;fill: currentColor;overflow: hidden;" viewBox="0 0 1024 1024" version="1.1" xmlns="http://www.w3.org/2000/svg" p-id="915"><path d="M623.0016 128.5632c0-42.5984-38.144-77.3632-85.248-77.3632-47.0528 0-85.3504 34.6112-85.3504 77.3632 0 4.4032 0.3072 8.704 1.1264 12.8-117.8112 37.2736-214.5792 151.6032-214.5792 286.8736v106.496s0 134.2464-41.6256 135.5776c-24.6784 0-43.7248 17.408-43.7248 38.7584 0 21.504 19.0464 38.656 42.5984 38.656h682.8032c23.7056 0 42.5984-17.3056 42.5984-38.7072 0-21.504-19.0464-38.5536-42.5984-38.5536-42.752 0-42.752-134.5024-42.752-134.5024V428.3392c0-135.4752-90.368-249.856-214.528-286.976 0.8192-4.2496 1.3824-8.3968 1.3824-12.7488h-0.1024zM665.6 791.04c-0.1024 64.1024-42.3936 130.56-127.8976 130.56-85.504 0-127.8976-66.2528-128-130.56H665.6z" p-id="916"></path></svg>