<svg class="icon" style="width: 1em;height: 1em;vertical-align: middle;fill: currentColor;overflow: hidden;" viewBox="0 0 1024 1024" version="1.1" xmlns="http://www.w3.org/2000/svg" p-id="993"><path d="M537.856 100.4544l418.1504 244.6336a51.2 51.2 0 0 1 25.344 44.2368v498.176a51.2 51.2 0 0 1-51.2 51.2H93.8496a51.2 51.2 0 0 1-51.2-51.2v-498.176a51.2 51.2 0 0 1 25.344-44.2368l418.1504-244.6336a51.2 51.2 0 0 1 51.712 0zM512 554.6496a42.6496 42.6496 0 0 0-42.6496 42.7008v128a42.6496 42.6496 0 0 0 85.2992 0v-128a42.6496 42.6496 0 0 0-42.6496-42.7008z" p-id="994"></path></svg>