<svg class="icon" style="width: 1em;height: 1em;vertical-align: middle;fill: currentColor;overflow: hidden;" viewBox="0 0 1024 1024" version="1.1" xmlns="http://www.w3.org/2000/svg" p-id="970"><path d="M783.8208 85.504l114.944 0.0512c60.8256 0 110.1824 51.7632 110.1824 115.6608V894.976c0 63.8976-49.3568 115.6608-110.1824 115.6608H127.2832c-60.8256 0-110.1824-51.7632-110.1824-115.6608V201.216c0-63.8976 49.3568-115.6608 110.1824-115.6608l114.944-0.0512c-8.96 26.5728-5.0688 56.0128 10.4448 79.0016 15.4624 23.04 40.6528 36.7104 67.4816 36.7104h385.7408c26.8288 0 52.0192-13.6704 67.4816-36.7104 15.5136-22.9888 19.4048-52.4288 10.4448-79.0016z m-9.9328 555.8784H230.912c-23.6032 0-45.9776 10.9056-57.8048 28.0576a50.6368 50.6368 0 0 0-8.704 28.0576c0 31.1808 29.8496 56.1152 67.072 56.1152H775.168c23.6032 0 45.9776-10.9568 57.8048-28.0576a46.8992 46.8992 0 0 0-1.28-56.1152c-11.776-17.152-34.1504-28.0576-57.7536-28.0576z m-89.3952-359.5776l-4.2496 2.9696a37.2736 37.2736 0 0 0-13.6704 26.1632l-0.1024 78.7456h-74.752c-20.5312 1.28-35.8912 17.5616-35.8912 37.2736l0.3584 5.2736a37.376 37.376 0 0 0 34.7136 32h75.5712v74.3936a37.5296 37.5296 0 0 0 56.7296 33.4848l4.2496-2.9696a37.2736 37.2736 0 0 0 13.7216-26.112l0.0512-78.7968h74.8032a37.0688 37.0688 0 0 0 33.5872-17.92 37.2224 37.2224 0 0 0 0-38.7072l-3.0208-4.1984a37.4784 37.4784 0 0 0-26.1632-13.6192l-79.2064-0.1024V315.2896a37.5296 37.5296 0 0 0-56.7296-33.4848zM403.968 416.9728H212.1728c-16.896 0-32.9728 10.9056-41.4208 28.0576-8.448 17.664-8.448 38.912 0 56.1152 8.448 17.1008 24.064 28.0576 41.4208 28.0576H403.968c16.896 0 32.9216-10.9568 41.4208-28.0576 8.448-17.664 8.448-38.9632 0-56.1152-8.4992-17.152-24.064-28.0576-41.4208-28.0576z" p-id="971"></path><path d="M382.464 135.6288h230.1952c28.9792-2.56 50.688-28.8768 49.0496-59.5968a58.7264 58.7264 0 0 0-13.9264-40.7552 52.992 52.992 0 0 0-37.376-18.176H381.952c-29.5424 1.8944-51.8656 28.2112-50.688 59.5968-1.1776 30.72 21.7088 57.6512 51.2 58.88z" p-id="972"></path></svg>