<svg class="icon" style="width: 1em;height: 1em;vertical-align: middle;fill: currentColor;overflow: hidden;" viewBox="0 0 1024 1024" version="1.1" xmlns="http://www.w3.org/2000/svg" p-id="835"><path d="M620.678799 713.607618c1.842881-1.177396 22.165765-14.026373 28.103938-17.660945 10.954905-6.70604 20.015737-11.773963 29.12776-15.869254 63.732974-29.434908 119.94085-8.651303 194.270392 79.346273 45.969647 54.467377 59.586492 102.791817 41.823164 145.843569-13.207315 32.148038-38.700505 54.313804-84.055858 81.752257-2.917895 1.740499-29.025379 17.149033-35.731419 21.346707-105.60733 66.036576-347.587867-85.079681-521.637756-343.185429-174.459419-258.822424-219.610007-534.74269-112.620517-601.700706l14.077565-9.060833 15.357343-10.084655C243.400068 8.859139 278.056472-5.320808 319.11177 1.74357c40.952915 7.16676 75.865275 37.881447 105.351374 93.833367 62.19724 118.405116 48.478013 174.561801-31.533745 225.599371-5.733408 3.736954-26.209866 16.227593-28.103938 17.456181-19.606208 12.285875 13.616844 94.652425 90.81309 209.167014 78.168877 115.794368 143.539968 179.169004 164.937865 165.859306z" p-id="836"></path></svg>