<svg class="icon" style="width: 1em;height: 1em;vertical-align: middle;fill: currentColor;overflow: hidden;" viewBox="0 0 1024 1024" version="1.1" xmlns="http://www.w3.org/2000/svg" p-id="869"><path d="M537.6 51.2a486.4 486.4 0 1 1 0 972.8 486.4 486.4 0 0 1 0-972.8z m0 243.2a40.5504 40.5504 0 0 0-40.5504 40.5504v243.2l0.3072 4.7104c1.28 11.0592 7.0656 20.992 15.9232 27.6992l162.1504 121.6 4.2496 2.816a40.5504 40.5504 0 0 0 52.48-10.9056l2.816-4.2496a40.5504 40.5504 0 0 0-10.9056-52.5312l-145.9712-109.4144V334.9504l-0.256-4.7616a40.5504 40.5504 0 0 0-40.2432-35.7888z" p-id="870"></path></svg>