<svg class="icon" style="width: 1em;height: 1em;vertical-align: middle;fill: currentColor;overflow: hidden;" viewBox="0 0 1024 1024" version="1.1" xmlns="http://www.w3.org/2000/svg" p-id="1015"><path d="M979.456 157.696a51.2 51.2 0 0 1 1.8944 13.824v600.064a51.2 51.2 0 0 1-37.7344 49.3568l-404.6848 110.3872a102.4 102.4 0 0 1-53.8624 0L80.384 820.9408a51.2 51.2 0 0 1-37.7344-49.3568V171.52a51.2 51.2 0 0 1 65.0752-49.2544L498.176 232.1408a51.2 51.2 0 0 0 27.7504 0l390.4-109.8752a51.2 51.2 0 0 1 63.1296 35.3792zM512 426.5984a42.6496 42.6496 0 0 0-42.6496 42.7008v213.2992a42.6496 42.6496 0 0 0 85.2992 0V469.3504A42.6496 42.6496 0 0 0 512 426.6496z" p-id="1016"></path></svg>