<svg class="icon" style="width: 1em;height: 1em;vertical-align: middle;fill: currentColor;overflow: hidden;" viewBox="0 0 1024 1024" version="1.1" xmlns="http://www.w3.org/2000/svg" p-id="1038"><path d="M422.1952 85.3504a247.04 247.04 0 0 1 101.9392 472.064c201.8816 87.1424 378.0608 393.5232 232.704 393.5232H74.6496c-120.576-0.1024 47.6672-305.3568 246.6304-393.1648a247.04 247.04 0 0 1 100.864-472.4736z m22.4256 583.8336a44.9024 44.9024 0 0 0-44.9024 44.9024v89.856a44.9024 44.9024 0 1 0 89.8048 0v-89.856a44.9024 44.9024 0 0 0-44.9024-44.9024z" p-id="1039"></path><path d="M736.256 127.6928c127.1808 97.536 126.6688 262.9632 40.2944 361.4208 155.392 148.1216 224.0512 285.952 200.192 414.6688a42.6496 42.6496 0 1 1-83.8656-15.5648c18.8416-101.7856-47.8208-224.5632-207.2064-366.848a42.6496 42.6496 0 0 1 5.7344-67.9936l2.2528-2.4064 2.5088-2.2528c71.6288-60.1088 80.2304-182.6816-11.8784-253.2864a42.6496 42.6496 0 1 1 51.9168-67.7376z" p-id="1040"></path></svg>