<?xml version="1.0" standalone="no"?><!DOCTYPE svg PUBLIC "-//W3C//DTD SVG 1.1//EN" "http://www.w3.org/Graphics/SVG/1.1/DTD/svg11.dtd"><svg t="1650333409810" class="icon" viewBox="0 0 1024 1024" version="1.1" xmlns="http://www.w3.org/2000/svg" p-id="2075" xmlns:xlink="http://www.w3.org/1999/xlink" width="200" height="200"><defs><style type="text/css"></style></defs><path d="M888.6272 83.968c59.7504 0 108.1856 50.7392 108.1856 113.3056v679.8336c0 62.5664-48.4352 113.3056-108.1856 113.3056H131.3792c-59.8016 0-108.2368-50.688-108.2368-113.3056V197.2736c0-62.5664 48.4352-113.3056 108.1856-113.3056H244.224a88.3712 88.3712 0 0 0 10.24 77.4144c15.1552 22.528 39.936 35.8912 66.2528 35.8912h378.624c26.368 0 51.0464-13.3632 66.2528-35.8912 15.2064-22.528 19.0464-51.456 10.24-77.4656l112.8448 0.0512z" fill="#CCCCCC" p-id="2076"></path><path d="M346.3168 503.6032h327.3216c36.352 0 54.5792 19.6096 54.5792 58.7776 0 39.168-18.176 58.7264-54.5792 58.7264H346.3168c-36.352 0-54.5792-19.5584-54.5792-58.7264s18.176-58.7776 54.5792-58.7776z" fill="#FFFFFF" p-id="2077"></path><path d="M577.1264 390.2976v327.3216c0 36.352-19.6096 54.5792-58.7776 54.5792-39.168 0-58.7264-18.176-58.7264-54.5792V390.2976c0-36.352 19.5584-54.5792 58.7264-54.5792s58.7776 18.2272 58.7776 54.5792z" fill="#FFFFFF" p-id="2078"></path><path d="M394.24 134.2976h233.728c29.3888-2.5088 51.456-28.6208 49.7664-59.0848a57.344 57.344 0 0 0-14.1312-40.3968 54.3232 54.3232 0 0 0-37.888-18.0224H393.5744C363.6736 18.6368 340.992 44.7488 342.1696 75.776c-1.1776 30.5152 22.016 57.2416 52.0192 58.4704z" fill="#CCCCCC" p-id="2079"></path></svg>